# xmcd
#
# Track frame offsets:
#  150
#  32554
#  52510
#  69798
#  87214
#  111620
#  135465
#  159016
#  187090
#  207159
#  235051
#
# Disc length: 3254 seconds
#
# Revision: 0
# Processed by: cddbd v1.5.2PL0 Copyright (c) Steve Scherf et al.
# Submitted via: Collectorz.com_Music_Collector 6.11
#
DISCID=820cb40b
DTITLE=Katrenia - Katrenia
DYEAR=1900
DGENRE=
TTITLE0=Cause I Love You
TTITLE1=Quick Shot
TTITLE2=Hold ing On
TTITLE3=Since You've Been Gone
TTITLE4=Never Wanna Live Without Your Love
TTITLE5=Sorry Won't Fix It
TTITLE6=Come Back Home
TTITLE7=I Got A thang For You
TTITLE8=The Man For Me
TTITLE9=Chance of A Lifetime
TTITLE10=Thank You Lord
EXTD=
EXTT0=
EXTT1=
EXTT2=
EXTT3=
EXTT4=
EXTT5=
EXTT6=
EXTT7=
EXTT8=
EXTT9=
EXTT10=
PLAYORDER=
